<svg width="68" height="53" viewBox="0 0 68 53" fill="none" xmlns="http://www.w3.org/2000/svg">
<g id="Logo">
<rect id="Rectangle 1" width="67.8412" height="52.437" rx="26.2185" fill="#F47266"/>
<path id="Vector" d="M28.8308 7.8944C24.8338 5.89544 19.2471 4.91623 11.7675 4.88147C11.0621 4.87143 10.3706 5.08689 9.78506 5.49912C9.30448 5.83938 8.91109 6.29813 8.63948 6.83503C8.36787 7.37192 8.22637 7.97049 8.22742 8.57811V41.732C8.22742 43.9732 9.74966 45.6639 11.7675 45.6639C19.6298 45.6639 27.5165 46.4333 32.2403 51.1103C32.3049 51.1746 32.3862 51.2176 32.4739 51.2339C32.5616 51.2502 32.652 51.2392 32.7338 51.2021C32.8156 51.1651 32.8852 51.1037 32.934 51.0256C32.9827 50.9475 33.0085 50.856 33.0081 50.7627V11.6977C33.0083 11.4341 32.9544 11.1735 32.8502 10.9336C32.746 10.6937 32.5939 10.4801 32.404 10.3071C31.322 9.3381 30.1201 8.52656 28.8308 7.8944ZM59.7712 5.49564C59.1854 5.08444 58.4938 4.87018 57.7887 4.88147C50.3092 4.91623 44.7225 5.8908 40.7255 7.8944C39.4362 8.52541 38.234 9.33536 37.1511 10.3024C36.9617 10.4757 36.8099 10.6895 36.7059 10.9294C36.6019 11.1692 36.5481 11.4296 36.5482 11.693V50.7604C36.5481 50.8501 36.5733 50.9378 36.6207 51.0125C36.668 51.0872 36.7354 51.1457 36.8143 51.1804C36.8933 51.2152 36.9802 51.2248 37.0644 51.208C37.1485 51.1912 37.226 51.1488 37.2871 51.086C40.127 48.131 45.1108 45.6604 57.7931 45.6616C58.732 45.6616 59.6325 45.2709 60.2964 44.5754C60.9603 43.88 61.3332 42.9368 61.3332 41.9533V8.57927C61.3345 7.97045 61.1927 7.37067 60.9203 6.83287C60.6478 6.29508 60.2532 5.83582 59.7712 5.49564Z" fill="white"/>
</g>
</svg>
